<svg xmlns="http://www.w3.org/2000/svg" width="221" height="48" fill="none"><g fill="#0c111d"><path fill-rule="evenodd" d="M8 4a8 8 0 0 0-8 8v24a8 8 0 0 0 8 8h24a8 8 0 0 0 8-8V12a8 8 0 0 0-8-8zm3 15.5h9.964L9.233 31.232l3.536 3.536L24.5 23.036V33h5V17a2.5 2.5 0 0 0-2.5-2.5H11z" clip-rule="evenodd"/><path d="M50 33V14.1h4.05v15.417h7.506V33zm26.356-13.878V33H72.23l.427-1.944q-1.647 2.079-4.32 2.079-1.836 0-3.294-.864c-1.458-.864-1.737-1.404-2.295-2.484q-.81-1.62-.81-3.753 0-2.106.81-3.726.837-1.62 2.295-2.484 1.485-.891 3.321-.891 1.404 0 2.484.54c1.08.54 1.314.855 1.782 1.485l-.37-1.836zm-7.128 10.935q1.539 0 2.457-1.08.918-1.107.918-2.889 0-1.809-.918-2.916c-.918-1.107-1.43-1.107-2.457-1.107s-1.854.369-2.484 1.107q-.918 1.107-.918 2.916 0 1.782.918 2.889.945 1.08 2.484 1.08m22.311-10.935V33H87.41l.403-1.674q-.729.864-1.701 1.35c-.972.486-1.44.486-2.376.486q-2.43 0-3.97-1.485-1.538-1.512-1.538-5.022v-7.533h3.807v7.074q0 1.89.648 2.862.675.945 2.052.945 1.431 0 2.214-1.053.783-1.08.783-2.997v-6.831zm10.072-.162q2.43 0 3.996 1.512c1.566 1.512 1.566 2.673 1.566 4.995V33h-3.807v-7.317q0-3.591-2.808-3.591-1.486 0-2.296.999c-.81.999-.81 1.602-.81 2.808V33h-3.807V19.122h4.075l-.403 1.728a5 5 0 0 1 1.755-1.377q1.026-.513 2.539-.513m20.758 8.775q-.378 2.538-2.16 3.996-1.755 1.431-4.563 1.431-2.16 0-3.78-.864a6.25 6.25 0 0 1-2.511-2.511q-.864-1.62-.864-3.726 0-2.133.864-3.726a6.07 6.07 0 0 1 2.511-2.484q1.647-.891 3.807-.891 2.781 0 4.536 1.431 1.755 1.404 2.16 3.915h-3.942q-.243-1.026-.972-1.62-.729-.621-1.809-.621-1.485 0-2.376 1.107c-.891 1.107-.891 1.701-.891 2.889s.297 2.151.891 2.889 1.386 1.107 2.376 1.107q1.107 0 1.836-.621.756-.621.972-1.701zm9.432-8.775q2.457 0 4.023 1.512 1.593 1.512 1.593 4.995V33h-3.807v-7.371q0-1.728-.702-2.619-.702-.918-2.106-.918-1.458 0-2.295.999-.81.999-.81 2.781V33h-3.807V14.1h3.807v6.723q1.539-1.863 4.104-1.863m10.984 7.884q.109 1.404 1.135 2.268 1.053.837 2.781.837 1.43 0 2.321-.594.918-.621.919-1.701 0-.756-.513-1.188-.486-.459-1.404-.702-.891-.27-2.781-.648-1.863-.351-3.132-.891a5.2 5.2 0 0 1-2.079-1.647q-.783-1.107-.783-2.916 0-1.647.891-2.943.918-1.296 2.511-2.025 1.62-.756 3.645-.756 2.079 0 3.725.783 1.675.756 2.62 2.106.972 1.35.999 3.051h-3.969q-.135-1.215-1.026-1.944-.891-.756-2.349-.756-1.35 0-2.16.567c-.81.567-.81.918-.81 1.62q0 .756.486 1.188.486.405 1.376.675.892.243 2.755.594 1.89.351 3.186.891a4.6 4.6 0 0 1 2.079 1.593q.81 1.053.81 2.835 0 1.728-.945 3.105-.945 1.35-2.646 2.133-1.675.783-3.781.783-2.267 0-4.049-.81-1.755-.837-2.755-2.295c-1-1.458-1.007-2.061-1.025-3.267zm14.743-13.5q.945 0 1.565.621.621.594.622 1.512c.001.918-.208 1.125-.622 1.539s-.935.621-1.565.621-1.161-.207-1.593-.621q-.621-.621-.622-1.539c-.001-.918.208-1.116.622-1.512q.648-.621 1.593-.621m-1.917 5.778h3.807V33h-3.807zm22.605-.162q2.241 0 3.645 1.485c1.404 1.485 1.404 2.637 1.404 4.941v7.641h-3.807v-7.776q0-3.159-2.403-3.159-1.242 0-1.998.891-.756.864-.756 2.43v7.614h-3.807v-7.776q0-3.159-2.43-3.159-1.242 0-1.998.918-.729.891-.729 2.43v7.587h-3.807V19.122h4.07l-.398 1.728q.702-.891 1.674-1.377c.972-.486 1.458-.495 2.43-.513q2.97 0 4.131 2.349a4.94 4.94 0 0 1 1.971-1.728q1.242-.621 2.808-.621m14.919 0q1.863 0 3.294.891 1.458.864 2.268 2.484.837 1.62.837 3.753c0 2.133-.279 2.664-.837 3.726q-.81 1.593-2.268 2.484-1.458.864-3.321.864-2.673 0-4.185-1.917V38.4h-3.807V19.122h4.074l-.375 1.917a5.2 5.2 0 0 1 1.782-1.512q1.107-.567 2.538-.567m-.891 11.097q1.539 0 2.484-1.107.945-1.134.945-2.916c0-1.782-.315-2.142-.945-2.862q-.945-1.107-2.484-1.107c-1.539 0-1.845.369-2.457 1.107q-.918 1.08-.918 2.862 0 1.809.918 2.916c.918 1.107 1.431 1.107 2.457 1.107m8.865-15.957h3.807V33h-3.807zm5.38 11.988q0-2.16.864-3.753.891-1.62 2.457-2.484 1.593-.891 3.672-.891 2.106 0 3.699.837 1.62.81 2.511 2.322.918 1.485.945 3.51 0 .729-.108 1.296h-10.071v.108q.135 1.512.972 2.376c.837.864 1.323.864 2.295.864q1.161 0 1.917-.486.783-.513 1.026-1.485h3.753q-.216 1.377-1.053 2.484c-.837 1.107-1.296 1.323-2.214 1.755q-1.377.621-3.159.621-2.322 0-4.023-.864a6.2 6.2 0 0 1-2.592-2.457q-.891-1.62-.891-3.753m10.341-1.647q-.189-1.269-1.053-1.944-.837-.702-2.133-.702-1.242 0-2.106.729-.837.702-.999 1.917z"/></g></svg>